<svg id="Layer_1" data-name="Layer 1" xmlns="http://www.w3.org/2000/svg" viewBox="0 0 512 512"><defs><style>.cls-1{fill:#d9e4e8;}.cls-2{fill:#141f38;}</style></defs><title>24h-filled</title><circle class="cls-1" cx="256" cy="256" r="243.2"/><path class="cls-2" d="M256,0C114.84,0,0,114.84,0,256S114.84,512,256,512,512,397.16,512,256,397.16,0,256,0Zm0,486.4C129,486.4,25.6,383,25.6,256S129,25.6,256,25.6,486.4,129,486.4,256,383,486.4,256,486.4ZM187.41,272.12v.58h29.26c3.26,0,4.39,1.06,4.39,4.15V285c0,3-1.12,4.05-4.39,4.05H170.79c-3.26,0-4.39-1.06-4.39-4.05v-7.72c0-6.18,2-10.91,6.52-14.38a61,61,0,0,1,6-4c1.74-.87,4.18-1.93,7.24-3.19l4.89-2c.92-.39,2.25-1.06,4.08-2a13.87,13.87,0,0,0,3.77-2.51,10.35,10.35,0,0,0,3-6.85c0-3.76-2.55-6.37-6.93-6.37-4.18,0-6.53,1.74-8.87,6.37-1.53,3.09-2.34,3.48-5.51,2.61l-10.81-3.76c-3-1.06-3.77-2.41-2.65-5.21,4.69-11.29,14.17-16.88,28.45-16.88,8.26,0,14.88,2.12,19.67,6.37a20.48,20.48,0,0,1,7.24,16c0,7.14-1.73,12.55-5.3,16.11s-9.48,6.76-17.74,9.56c-3.16.87-7.13,1.93-9.28,2.7C188.32,270.48,187.41,271.26,187.41,272.12ZM266.51,289H277c3.16,0,4.28-1.06,4.28-4.05V275.4h5.2c3.16,0,4.28-1.06,4.28-4.05v-6.76c0-3-1.12-4.05-4.28-4.05h-5.2v-36c0-3-1.12-4.06-4.28-4.06H266.92c-3.26,0-4.59.58-6.63,2.89l-31,35c-1.94,2.22-2.24,3.19-2.24,6.56v6.37c0,3,1.12,4.05,4.28,4.05h30.89V285C262.22,287.95,263.24,289,266.51,289Zm-18.56-28.47,14.27-16.31v16.31Zm48.81,24.8V221.27c0-2.7.92-3.67,3.88-3.67h11.21c3,0,3.88,1,3.88,3.67v16.5a58.23,58.23,0,0,1,6.93-.39c15.39,0,22.94,7.43,22.94,20.84v27.12c0,2.71-.92,3.67-3.88,3.67H330.51c-2.85,0-3.87-1-3.87-3.67V258.91c0-3.57-2-5.31-6.12-5.31a20.42,20.42,0,0,0-4.79.39v31.36c0,2.71-.92,3.67-3.88,3.67H300.64C297.68,289,296.76,288,296.76,285.34Zm15.38-169.18a12.8,12.8,0,0,1,17.06-6A169.87,169.87,0,0,1,357.26,127,12.8,12.8,0,0,1,342,147.56a143.85,143.85,0,0,0-23.81-14.33A12.8,12.8,0,0,1,312.14,116.16Zm63.38,66.11a12.8,12.8,0,0,1,21.1-14.5,173.19,173.19,0,0,1,16.29,29.47,12.79,12.79,0,0,1-6.68,16.82,12.64,12.64,0,0,1-5.06,1.06,12.8,12.8,0,0,1-11.76-7.74A147.87,147.87,0,0,0,375.52,182.27ZM422.4,256c0,91.76-74.64,166.4-166.4,166.4S89.6,347.76,89.6,256c0-90,71.84-163.55,161.19-166.31L234.15,73.05a12.8,12.8,0,0,1,18.1-18.1l38.4,38.4a12.8,12.8,0,0,1,0,18.1l-38.4,38.4a12.8,12.8,0,0,1-18.1-18.1l16.44-16.44C175.45,118.17,115.2,180.18,115.2,256c0,77.64,63.16,140.8,140.8,140.8s140.64-63,140.8-140.52c0-.13,0-.26,0-.38a12.8,12.8,0,0,1,25.58-.69C422.39,255.47,422.4,255.75,422.4,256Z"/></svg>